<svg width="707" height="287" viewBox="0 0 707 287" fill="none" xmlns="http://www.w3.org/2000/svg">
<path fill-rule="evenodd" clip-rule="evenodd" d="M669.765 222.802V190.209L653.65 203.572C637.967 216.575 616.532 223.449 591.663 223.449C560.024 223.449 532.905 212.842 513.237 192.774C493.366 172.498 482.862 144.316 482.862 111.274C482.862 44.7416 526.585 0.0413936 591.663 0.0413936C617.642 0.0413936 638.38 6.9445 653.299 20.5556L669.765 35.5803V0.0413936H706.586V222.802H669.765ZM594.488 32.1766C549.045 32.1766 519.682 63.408 519.682 111.746C519.682 160.083 549.045 191.314 594.488 191.314C640.217 191.314 669.765 160.083 669.765 111.746C669.765 63.408 640.217 32.1766 594.488 32.1766ZM477.37 275.354C476.132 277.006 474.255 277.945 471.628 277.945C465.436 277.945 463.86 272.725 463.86 270.397V258.831H468.364V270.283C468.364 272.163 469.676 273.813 472.303 273.813C474.931 273.813 477.37 272.124 477.37 268.107V258.831H481.872V277.607H477.37V275.354ZM433.251 101.711C433.251 59.395 414.194 36.0901 379.593 36.0901C368.686 36.0901 358.56 38.3886 348.636 43.1166L340.53 46.9785L345.533 54.4657C363.093 80.7387 372.764 113.765 372.764 147.46C372.764 171.132 367.809 190.421 358.433 203.239C348.785 216.428 334.296 223.117 315.372 223.117C265.046 223.117 257.533 175.996 257.533 147.908C257.533 115.244 267.156 81.6413 283.934 55.7156L288.766 48.2473L280.751 44.4534C274.045 41.2813 266.99 38.5183 259.763 37.6422V1.39835C277.682 2.68733 294.67 9.22036 310.273 19.4189L314.609 22.2537L318.866 19.2968C337.268 6.51903 358.451 0.0413936 381.822 0.0413936C409.602 0.0413936 432.488 9.59925 448.004 27.679C463.262 45.4591 471.326 71.0588 471.326 101.711V222.947H433.251V101.711ZM321.423 88.4475L314.186 73.4895L307.43 88.6728C299.696 106.06 295.609 126.078 295.609 146.562C295.609 173.441 302.108 187.067 314.925 187.067C322.306 187.067 334.689 181.632 334.689 145.217C334.689 126.019 330.102 106.389 321.423 88.4475ZM251.057 257.329C248.958 257.329 247.981 255.301 246.18 255.301C245.242 255.301 244.641 255.828 244.529 257.066H243.253C243.103 254.588 244.154 252.109 246.517 252.109C248.619 252.109 249.557 254.099 251.396 254.099C252.296 254.099 252.896 253.612 253.01 252.372H254.285C254.435 254.851 253.385 257.329 251.057 257.329ZM247.981 258.569C250.345 258.569 252.146 259.244 253.423 260.408V258.831H257.927V277.607H253.423V276.181C252.109 277.268 250.269 277.945 247.981 277.945C242.427 277.945 238.525 274.039 238.525 268.219C238.525 262.436 242.427 258.569 247.981 258.569ZM248.206 273.813C251.36 273.813 253.423 271.749 253.423 268.257C253.423 264.764 251.36 262.699 248.206 262.699C245.092 262.699 243.029 264.764 243.029 268.257C243.029 271.749 245.092 273.813 248.206 273.813ZM227.009 273.813C229.297 273.813 230.986 272.725 231.774 270.811H236.464C235.452 275.165 231.962 277.945 227.046 277.945C226.859 277.945 226.671 277.945 226.333 278.207C226.183 278.508 226.107 278.696 226.107 278.696C227.797 278.62 230.012 279.222 230.012 281.737C230.012 284.178 227.871 285.08 225.283 285.08C224.533 285.08 223.745 285.005 222.957 284.855L223.293 283.39C225.021 283.502 226.783 283.24 226.783 281.587C226.783 279.521 224.118 279.897 224.118 279.897L225.058 277.794C220.367 277.006 217.327 273.364 217.327 268.219C217.327 262.436 221.23 258.569 227.046 258.569C231.925 258.569 235.452 261.31 236.427 265.591H231.737C230.95 263.75 229.261 262.699 227.009 262.699C223.894 262.699 221.831 264.764 221.831 268.257C221.831 271.749 223.894 273.813 227.009 273.813ZM215.394 36.9108H212.302C202.981 36.9108 195.426 29.3506 195.426 20.0231V16.9303C195.426 7.60284 202.981 0.0413936 212.302 0.0413936H215.394C224.714 0.0413936 232.27 7.60284 232.27 16.9303V20.0231C232.27 29.3506 224.714 36.9108 215.394 36.9108ZM187.502 249.444H192.005V277.607H187.502V249.444ZM174.595 277.945C168.779 277.945 164.876 274.039 164.876 268.219C164.876 262.436 168.779 258.569 174.595 258.569C180.411 258.569 184.277 262.436 184.277 268.219C184.277 274.039 180.411 277.945 174.595 277.945ZM174.558 262.699C171.443 262.699 169.379 264.764 169.379 268.257C169.379 271.749 171.443 273.813 174.558 273.813C177.71 273.813 179.773 271.749 179.773 268.257C179.773 264.764 177.71 262.699 174.558 262.699ZM92.2734 90.3986C110.761 93.5858 131.707 97.1959 147.331 106.211C164.809 116.293 172.948 131.271 172.948 153.346C172.948 174.42 164.706 190.945 148.451 202.461C129.922 215.588 103.526 223.117 76.0277 223.117C54.334 223.117 30.1115 220.284 1.97543 214.454L0.414551 214.132V178.514L2.80496 179.056C21.0534 183.208 39.9236 187.499 76.5539 187.499C127.893 187.499 135.559 169.329 135.559 158.498C135.559 136.054 109.413 131.548 81.7325 126.777C63.2411 123.59 42.2977 119.978 26.6738 110.964C9.197 100.883 1.05652 85.9047 1.05652 63.8297C1.05652 22.9359 30.7774 0.283078 84.7422 0.0413936C104.818 -0.00392219 131.188 4.02792 157.967 10.8366L157.835 42.9454L155.318 42.3135C128.963 35.6835 111.063 31.658 84.7498 31.658C41.7841 31.658 38.4446 52.3396 38.4446 58.6775C38.4446 81.1239 64.5905 85.6291 92.2734 90.3986ZM23.8466 270.283C23.8466 272.163 25.1595 273.813 27.7853 273.813C30.4136 273.813 32.8518 272.124 32.8518 268.107V258.831H37.3557V277.607H32.8518V275.354C31.6145 277.006 29.7376 277.945 27.1118 277.945C20.9187 277.945 19.344 272.725 19.344 270.397V258.831H23.8466V270.283ZM46.3572 261.084C47.5946 259.431 49.4714 258.494 52.0985 258.494C55.9251 258.494 57.9883 260.484 59.0028 262.549C60.1659 259.995 62.2668 258.494 65.6063 258.494C71.7982 258.494 73.3742 263.713 73.3742 266.04V277.607H68.8716V266.153C68.8716 264.275 67.5587 262.624 64.9316 262.624C62.3046 262.624 59.8651 264.314 59.8651 268.332V277.607H55.3625V266.153C55.3625 264.275 54.0496 262.624 51.4212 262.624C48.7954 262.624 46.3572 264.314 46.3572 268.332V277.607H41.8533V258.831H46.3572V261.084ZM85.6384 258.569C88.0024 258.569 89.8037 259.244 91.0801 260.408V258.831H95.584V277.607H91.0801V276.181C89.766 277.268 87.9282 277.945 85.6384 277.945C80.0847 277.945 76.1826 274.039 76.1826 268.219C76.1826 262.436 80.0847 258.569 85.6384 258.569ZM85.8638 273.813C89.017 273.813 91.0801 271.749 91.0801 268.257C91.0801 264.764 89.017 262.699 85.8638 262.699C82.7496 262.699 80.6864 264.764 80.6864 268.257C80.6864 271.749 82.7496 273.813 85.8638 273.813ZM117.717 261.009C118.879 259.394 120.681 258.494 123.533 258.494V262.624C119.18 262.624 117.717 265.178 117.717 270.922V277.607H113.213V258.831H117.717V261.009ZM134.412 258.569C140.228 258.569 144.093 262.436 144.093 268.219C144.093 268.745 144.057 269.234 144.019 269.721H129.346C129.834 272.312 131.711 273.813 134.376 273.813C136.251 273.813 137.715 273.1 138.615 271.786H143.531C142.293 275.579 138.952 277.945 134.412 277.945C128.597 277.945 124.693 274.039 124.693 268.219C124.693 262.436 128.597 258.569 134.412 258.569ZM139.102 265.591C138.314 263.75 136.626 262.699 134.376 262.699C132.16 262.699 130.472 263.75 129.684 265.591H139.102ZM154.486 271.561L159.064 258.831H163.905L156.812 277.607H152.158L145.068 258.831H149.906L154.486 271.561ZM232.253 223.117H195.442V52.0425H232.253V223.117ZM200.446 270.283C200.446 272.163 201.759 273.813 204.386 273.813C207.013 273.813 209.451 272.124 209.451 268.107V258.831H213.955V277.607H209.451V275.354C208.214 277.006 206.337 277.945 203.711 277.945C197.518 277.945 195.943 272.725 195.943 270.397V258.831H200.446V270.283ZM271.056 258.569C276.872 258.569 280.737 262.436 280.737 268.219C280.737 274.039 276.872 277.945 271.056 277.945C265.24 277.945 261.337 274.039 261.337 268.219C261.337 262.436 265.24 258.569 271.056 258.569ZM271.019 273.813C274.171 273.813 276.234 271.749 276.234 268.257C276.234 264.764 274.171 262.699 271.019 262.699C267.904 262.699 265.84 264.764 265.84 268.257C265.84 271.749 267.904 273.813 271.019 273.813ZM305.873 258.569C310.751 258.569 314.279 261.31 315.254 265.591H310.563C309.775 263.75 308.086 262.699 305.835 262.699C302.72 262.699 300.657 264.764 300.657 268.257C300.657 271.749 302.72 273.813 305.835 273.813C308.123 273.813 309.812 272.725 310.6 270.811H315.291C314.279 275.165 310.787 277.945 305.873 277.945C300.055 277.945 296.153 274.039 296.153 268.219C296.153 262.436 300.055 258.569 305.873 258.569ZM323.169 261.009C324.331 259.394 326.133 258.494 328.984 258.494V262.624C324.63 262.624 323.169 265.178 323.169 270.922V277.607H318.665V258.831H323.169V261.009ZM334.61 250.907C335.998 250.907 337.087 252.035 337.087 253.386C337.087 254.814 335.998 255.902 334.61 255.902C333.221 255.902 332.134 254.814 332.134 253.386C332.134 252.035 333.221 250.907 334.61 250.907ZM336.862 277.607H332.358V258.831H336.862V277.607ZM349.692 258.569C352.056 258.569 353.858 259.244 355.134 260.408V258.831H359.638V277.607H355.134V276.181C353.82 277.268 351.982 277.945 349.692 277.945C344.139 277.945 340.236 274.039 340.236 268.219C340.236 262.436 344.139 258.569 349.692 258.569ZM349.918 273.813C353.071 273.813 355.134 271.749 355.134 268.257C355.134 264.764 353.071 262.699 349.918 262.699C346.803 262.699 344.74 264.764 344.74 268.257C344.74 271.749 346.803 273.813 349.918 273.813ZM364.737 251.321H369.24V258.831H374.23V262.962H369.24V271.186C369.24 273.175 370.178 273.813 371.528 273.813C372.017 273.813 373.292 273.739 374.004 273.326L374.718 277.268C374.004 277.681 372.729 277.945 371.304 277.945C365.749 277.945 364.737 274.077 364.737 270.697V262.962H362.823V258.831H364.737V251.321ZM380.345 250.907C381.732 250.907 382.822 252.035 382.822 253.386C382.822 254.814 381.732 255.902 380.345 255.902C378.956 255.902 377.867 254.814 377.867 253.386C377.867 252.035 378.956 250.907 380.345 250.907ZM382.597 277.607H378.093V258.831H382.597V277.607ZM394.639 271.561L399.219 258.831H404.06L396.967 277.607H392.313L385.221 258.831H390.061L394.639 271.561ZM414.451 258.569C416.815 258.569 418.616 259.244 419.893 260.408V258.831H424.395V277.607H419.893V276.181C418.579 277.268 416.739 277.945 414.451 277.945C408.897 277.945 404.995 274.039 404.995 268.219C404.995 262.436 408.897 258.569 414.451 258.569ZM414.676 273.813C417.828 273.813 419.893 271.749 419.893 268.257C419.893 264.764 417.828 262.699 414.676 262.699C411.562 262.699 409.498 264.764 409.498 268.257C409.498 271.749 411.562 273.813 414.676 273.813ZM450.356 258.569C452.719 258.569 454.522 259.244 455.797 260.408V258.831H460.301V286.995H455.797V276.067C454.522 277.232 452.719 277.945 450.356 277.945C444.801 277.945 440.899 274.039 440.899 268.219C440.899 262.436 444.801 258.569 450.356 258.569ZM450.582 273.813C453.734 273.813 455.797 271.749 455.797 268.257C455.797 264.764 453.734 262.699 450.582 262.699C447.466 262.699 445.403 264.764 445.403 268.257C445.403 271.749 447.466 273.813 450.582 273.813ZM495.002 258.569C500.819 258.569 504.684 262.436 504.684 268.219C504.684 268.745 504.647 269.234 504.609 269.721H489.936C490.424 272.312 492.301 273.813 494.966 273.813C496.841 273.813 498.305 273.1 499.205 271.786H504.121C502.884 275.579 499.543 277.945 495.002 277.945C489.187 277.945 485.283 274.039 485.283 268.219C485.283 262.436 489.187 258.569 495.002 258.569ZM499.693 265.591C498.905 263.75 497.217 262.699 494.966 262.699C492.752 262.699 491.062 263.75 490.274 265.591H499.693ZM523.478 250.907C524.866 250.907 525.954 252.035 525.954 253.386C525.954 254.814 524.866 255.902 523.478 255.902C522.089 255.902 521.001 254.814 521.001 253.386C521.001 252.035 522.089 250.907 523.478 250.907ZM525.729 277.607H521.226V258.831H525.729V277.607ZM534.733 261.084C535.972 259.431 537.848 258.494 540.474 258.494C544.302 258.494 546.365 260.484 547.38 262.549C548.542 259.995 550.644 258.494 553.983 258.494C560.175 258.494 561.751 263.713 561.751 266.04V277.607H557.247V266.153C557.247 264.275 555.935 262.624 553.309 262.624C550.68 262.624 548.242 264.314 548.242 268.332V277.607H543.738V266.153C543.738 264.275 542.427 262.624 539.798 262.624C537.173 262.624 534.733 264.314 534.733 268.332V277.607H530.23V258.831H534.733V261.084ZM570.376 260.408C571.653 259.244 573.453 258.569 575.818 258.569C581.37 258.569 585.274 262.436 585.274 268.219C585.274 274.039 581.37 277.945 575.818 277.945C573.453 277.945 571.653 277.232 570.376 276.067V286.995H565.874V258.831H570.376V260.408ZM575.591 273.813C578.707 273.813 580.77 271.749 580.77 268.257C580.77 264.764 578.707 262.699 575.591 262.699C572.44 262.699 570.376 264.764 570.376 268.257C570.376 271.749 572.44 273.813 575.591 273.813ZM596.977 258.569C599.341 258.569 601.142 259.244 602.418 260.408V258.831H606.921V277.607H602.418V276.181C601.104 277.268 599.265 277.945 596.977 277.945C591.423 277.945 587.521 274.039 587.521 268.219C587.521 262.436 591.423 258.569 596.977 258.569ZM597.202 273.813C600.354 273.813 602.418 271.749 602.418 268.257C602.418 264.764 600.354 262.699 597.202 262.699C594.088 262.699 592.024 264.764 592.024 268.257C592.024 271.749 594.088 273.813 597.202 273.813ZM620.014 258.569C624.891 258.569 628.42 261.31 629.394 265.591H624.704C623.916 263.75 622.226 262.699 619.976 262.699C616.862 262.699 614.797 264.764 614.797 268.257C614.797 271.749 616.862 273.813 619.976 273.813C622.264 273.813 623.952 272.725 624.74 270.811H629.432C628.42 275.165 624.929 277.945 620.014 277.945C614.197 277.945 610.295 274.039 610.295 268.219C610.295 262.436 614.197 258.569 620.014 258.569ZM633.593 251.321H638.097V258.831H643.087V262.962H638.097V271.186C638.097 273.175 639.035 273.813 640.386 273.813C640.873 273.813 642.149 273.739 642.862 273.326L643.575 277.268C642.862 277.681 641.586 277.945 640.16 277.945C634.607 277.945 633.593 274.077 633.593 270.697V262.962H631.68V258.831H633.593V251.321ZM654.53 258.569C656.894 258.569 658.696 259.244 659.972 260.408V258.831H664.475V277.607H659.972V276.181C658.658 277.268 656.819 277.945 654.53 277.945C648.977 277.945 645.074 274.039 645.074 268.219C645.074 262.436 648.977 258.569 654.53 258.569ZM654.756 273.813C657.909 273.813 659.972 271.749 659.972 268.257C659.972 264.764 657.909 262.699 654.756 262.699C651.641 262.699 649.577 264.764 649.577 268.257C649.577 271.749 651.641 273.813 654.756 273.813ZM671.75 272.424C673.402 272.424 674.527 273.513 674.527 275.165C674.527 276.855 673.402 277.945 671.75 277.945C670.099 277.945 668.973 276.855 668.973 275.165C668.973 273.513 670.099 272.424 671.75 272.424Z" fill="#F57B00"/>
</svg>
